# xmcd
#
# Track frame offsets:
# 150
# 18460
# 31632
# 51500
# 65152
# 80087
# 95892
# 114007
# 137295
# 156245
# 173140
# 181100
# 197542
# 215252
#
# Disc length: 3052 seconds
#
# Revision: 3
# Processed by: cddbd v1.5.2PL0 Copyright (c) Steve Scherf et al.
# Submitted via: plextools 3.16
#
DISCID=b70bea0e
DTITLE=Lovekrauts - Popgun
DYEAR=1996
DGENRE=
TTITLE0=Lovekrauts - Hang on
TTITLE1=Lovekrauts - House shake
TTITLE2=Lovekrauts - Eventually
TTITLE3=Lovekrauts - Delegate
TTITLE4=Lovekrauts - Cruising
TTITLE5=Lovekrauts - Mr. Flutter
TTITLE6=Lovekrauts - Sex me up
TTITLE7=Lovekrauts - Shoot
TTITLE8=Lovekrauts - Privilege of L.
TTITLE9=Lovekrauts - Heaven
TTITLE10=Lovekrauts - Through
TTITLE11=Lovekrauts - Popgun
TTITLE12=Lovekrauts - Refrigerator Blue
TTITLE13=Lovekrauts - Butter and jam
EXTD=
EXTT0=
EXTT1=
EXTT2=
EXTT3=
EXTT4=
EXTT5=
EXTT6=
EXTT7=
EXTT8=
EXTT9=
EXTT10=
EXTT11=
EXTT12=
EXTT13=
PLAYORDER=
